<?xml version="1.0" encoding="utf-8"?>
<!-- Generator: Adobe Illustrator 15.0.0, SVG Export Plug-In . SVG Version: 6.00 Build 0)  -->
<!DOCTYPE svg PUBLIC "-//W3C//DTD SVG 1.0//EN" "http://www.w3.org/TR/2001/REC-SVG-20010904/DTD/svg10.dtd">
<svg version="1.0" id="Layer_1" xmlns="http://www.w3.org/2000/svg" xmlns:xlink="http://www.w3.org/1999/xlink" x="0px" y="0px"
	 width="1px" height="1.04px" viewBox="-14.145 -3.857 1 1.04" enable-background="new -14.145 -3.857 1 1.04" xml:space="preserve"
	>
<path fill="#879EB2" d="M-13.631-3.205l0.034-0.033l0.128,0.128l-0.033,0.034L-13.631-3.205z"/>
<path fill="#879EB2" d="M-13.502-3.076l-0.034-0.033l0.262-0.262l0.033,0.033L-13.502-3.076z"/>
<g>
	<path fill="#879EB2" d="M-13.843-3.422c0-0.007,0-0.012,0-0.015c0-0.021,0.002-0.037,0.008-0.051
		c0.004-0.012,0.011-0.021,0.02-0.033c0.007-0.008,0.019-0.021,0.036-0.035c0.018-0.015,0.029-0.028,0.034-0.036
		c0.005-0.009,0.008-0.019,0.008-0.03c0-0.02-0.007-0.036-0.022-0.052c-0.016-0.015-0.035-0.021-0.057-0.021
		c-0.021,0-0.039,0.007-0.054,0.02c-0.014,0.014-0.023,0.034-0.027,0.063l-0.052-0.006c0.005-0.038,0.019-0.067,0.042-0.088
		c0.023-0.021,0.053-0.029,0.091-0.029c0.04,0,0.072,0.011,0.096,0.032c0.023,0.021,0.036,0.049,0.036,0.079
		c0,0.019-0.004,0.034-0.013,0.05c-0.009,0.015-0.026,0.031-0.05,0.053c-0.017,0.015-0.027,0.025-0.032,0.033
		c-0.005,0.006-0.009,0.014-0.012,0.022s-0.003,0.024-0.003,0.044H-13.843z M-13.846-3.321v-0.058h0.057v0.058H-13.846z"/>
</g>
<path fill="#879EB2" d="M-13.238-3.529h-0.249c0-0.182-0.148-0.328-0.329-0.328s-0.329,0.146-0.329,0.329
	c0,0.182,0.148,0.33,0.329,0.33c0.018,0,0.035-0.002,0.052-0.006v0.198c0,0.051,0.042,0.093,0.093,0.093h0.103l0.069,0.066
	c0,0,0.025,0.029,0.044,0.029l0,0c0.019,0,0.044-0.029,0.044-0.029l0.069-0.065h0.103c0.052-0.001,0.094-0.043,0.094-0.094v-0.431
	C-13.145-3.487-13.187-3.529-13.238-3.529z M-13.764-3.436v0.185c-0.017,0.003-0.034,0.005-0.052,0.005
	c-0.155,0-0.282-0.126-0.282-0.281s0.126-0.282,0.282-0.282c0.156,0,0.281,0.126,0.282,0.281h-0.137
	C-13.722-3.529-13.764-3.487-13.764-3.436z M-13.192-3.006c0,0.025-0.021,0.045-0.046,0.045h-0.135l-0.082,0.078l-0.081-0.078
	h-0.135c-0.025,0-0.046-0.021-0.046-0.045v-0.431c0-0.025,0.021-0.046,0.046-0.046h0.433c0.025,0,0.046,0.021,0.046,0.046V-3.006z"
	/>
</svg>
