<?xml version="1.0" encoding="utf-8"?>
<!-- Generator: Adobe Illustrator 15.0.0, SVG Export Plug-In . SVG Version: 6.00 Build 0)  -->
<!DOCTYPE svg PUBLIC "-//W3C//DTD SVG 1.0//EN" "http://www.w3.org/TR/2001/REC-SVG-20010904/DTD/svg10.dtd">
<svg version="1.0" id="Layer_1" xmlns="http://www.w3.org/2000/svg" xmlns:xlink="http://www.w3.org/1999/xlink" x="0px" y="0px"
	 width="1px" height="1.04px" viewBox="0.855 -0.857 1 1.04" enable-background="new 0.855 -0.857 1 1.04" xml:space="preserve">
<path fill="#224179" d="M1.369-0.205l0.033-0.033L1.531-0.11L1.498-0.076L1.369-0.205z"/>
<path fill="#224179" d="M1.498-0.076L1.464-0.109l0.263-0.262l0.032,0.033L1.498-0.076z"/>
<g>
	<path fill="#224179" d="M1.157-0.422c0-0.007,0-0.012,0-0.015c0-0.021,0.002-0.037,0.008-0.051C1.169-0.499,1.176-0.509,1.186-0.52
		c0.006-0.008,0.019-0.021,0.035-0.035C1.238-0.57,1.25-0.584,1.255-0.592C1.26-0.6,1.264-0.61,1.264-0.622
		c0-0.02-0.008-0.036-0.022-0.052C1.225-0.688,1.206-0.695,1.184-0.695c-0.021,0-0.039,0.007-0.054,0.02
		C1.116-0.662,1.107-0.641,1.104-0.612L1.051-0.618c0.006-0.038,0.02-0.067,0.042-0.088c0.023-0.021,0.054-0.029,0.091-0.029
		c0.041,0,0.072,0.011,0.096,0.032s0.037,0.049,0.037,0.079c0,0.019-0.004,0.034-0.014,0.05c-0.009,0.015-0.025,0.031-0.05,0.053
		C1.236-0.507,1.227-0.496,1.221-0.488C1.216-0.482,1.212-0.474,1.209-0.466S1.206-0.441,1.206-0.422H1.157z M1.154-0.321v-0.058
		h0.057v0.058H1.154z"/>
</g>
<path fill="#224179" d="M1.762-0.529H1.514c0-0.182-0.148-0.328-0.33-0.328c-0.181,0-0.329,0.146-0.329,0.329
	c0,0.182,0.148,0.33,0.329,0.33c0.019,0,0.035-0.002,0.053-0.006v0.198c0,0.051,0.041,0.093,0.093,0.093h0.103l0.069,0.066
	c0,0,0.024,0.029,0.044,0.029l0,0c0.02,0,0.044-0.029,0.044-0.029l0.069-0.065h0.103c0.052-0.001,0.095-0.043,0.095-0.094v-0.431
	C1.855-0.487,1.813-0.529,1.762-0.529z M1.236-0.436v0.185C1.219-0.249,1.202-0.247,1.184-0.247c-0.154,0-0.282-0.126-0.282-0.281
	S1.027-0.81,1.184-0.81s0.281,0.126,0.282,0.281H1.329C1.277-0.529,1.236-0.487,1.236-0.436z M1.809-0.006
	c0,0.025-0.021,0.045-0.047,0.045H1.627L1.545,0.117L1.464,0.039H1.329c-0.024,0-0.046-0.021-0.046-0.045v-0.431
	c0-0.025,0.021-0.046,0.046-0.046h0.433c0.025,0,0.047,0.021,0.047,0.046V-0.006z"/>
</svg>
