<?xml version="1.0" encoding="utf-8"?>
<!-- Generator: Adobe Illustrator 15.0.0, SVG Export Plug-In . SVG Version: 6.00 Build 0)  -->
<!DOCTYPE svg PUBLIC "-//W3C//DTD SVG 1.0//EN" "http://www.w3.org/TR/2001/REC-SVG-20010904/DTD/svg10.dtd">
<svg version="1.0" id="Layer_1" xmlns="http://www.w3.org/2000/svg" xmlns:xlink="http://www.w3.org/1999/xlink" x="0px" y="0px"
	 width="20px" height="21px" viewBox="0 0 20 21" enable-background="new 0 0 20 21" xml:space="preserve">
<g>
	<path fill-rule="evenodd" clip-rule="evenodd" fill="#879EB2" d="M17.169,7.515c0.216,0.112-5.512,7.254-6.09,7.833
		c-0.577,0.578-1.514,0.578-2.091,0c-0.578-0.578-0.578-1.514,0-2.092C9.565,12.678,16.864,7.356,17.169,7.515z"/>
	<path fill-rule="evenodd" clip-rule="evenodd" fill="#879EB2" d="M2.792,14.129v-1h2.594v1H2.792z"/>
	<path fill-rule="evenodd" clip-rule="evenodd" fill="#879EB2" d="M8.972,5.75h1v2.594h-1V5.75z"/>
	<path fill-rule="evenodd" clip-rule="evenodd" fill="#879EB2" d="M2.936,10.65l0.348-0.937l2.432,0.903l-0.348,0.937L2.936,10.65z"
		/>
	<path fill-rule="evenodd" clip-rule="evenodd" fill="#879EB2" d="M5.097,7.345l0.81-0.586L7.428,8.86L6.617,9.446L5.097,7.345z"/>
	<path fill="#879EB2" d="M10,3.331c-5.242,0-9.506,3.967-9.506,8.843c0,1.217,0.551,4.07,1.092,5.211l0.135,0.285h16.487
		l0.135-0.285c0.521-1.098,1.162-3.971,1.162-5.211C19.505,7.297,15.241,3.331,10,3.331z M17.561,16.67H2.369
		c-0.412-1.102-0.875-3.422-0.875-4.496c0-4.325,3.816-7.843,8.506-7.843s8.505,3.518,8.505,7.843
		C18.505,13.172,17.998,15.535,17.561,16.67z"/>
</g>
</svg>
