<?xml version="1.0" encoding="utf-8"?>
<!-- Generator: Adobe Illustrator 15.0.0, SVG Export Plug-In . SVG Version: 6.00 Build 0)  -->
<!DOCTYPE svg PUBLIC "-//W3C//DTD SVG 1.0//EN" "http://www.w3.org/TR/2001/REC-SVG-20010904/DTD/svg10.dtd">
<svg version="1.0" id="Layer_1" xmlns="http://www.w3.org/2000/svg" xmlns:xlink="http://www.w3.org/1999/xlink" x="0px" y="0px"
	 width="20px" height="21px" viewBox="0 0 20 21" enable-background="new 0 0 20 21" xml:space="preserve">
<path fill="none" stroke="#879EB2" stroke-linecap="round" stroke-linejoin="round" stroke-miterlimit="10" d="M11.305,11.617
	c1.539-0.603,2.661-2.354,2.661-4.446c0-2.589-1.705-4.688-3.809-4.688S6.349,4.582,6.349,7.171c0,2.118,1.149,3.887,2.718,4.467
	c-2.766,0.279-5.595,1.661-7.074,6.826c0.451-0.094,2.007-0.018,2.007-0.018s1.142-0.018,6.272,0.03
	c3.772,0.095,4.967-0.012,6.133-0.012c0.355,0.026,1.604-0.012,1.604-0.012S17.276,12.11,11.305,11.617z"/>
</svg>
