<?xml version="1.0" encoding="utf-8"?>
<!-- Generator: Adobe Illustrator 15.0.0, SVG Export Plug-In . SVG Version: 6.00 Build 0)  -->
<!DOCTYPE svg PUBLIC "-//W3C//DTD SVG 1.0//EN" "http://www.w3.org/TR/2001/REC-SVG-20010904/DTD/svg10.dtd">
<svg version="1.0" id="Layer_1" xmlns="http://www.w3.org/2000/svg" xmlns:xlink="http://www.w3.org/1999/xlink" x="0px" y="0px"
	 width="20px" height="21px" viewBox="0 0 20 21" enable-background="new 0 0 20 21" xml:space="preserve">
<g>
	<path fill="#879EB2" d="M17.407,7.91c0-4.085-3.323-7.408-7.407-7.408S2.593,3.825,2.593,7.91c0,1.122,0.253,2.21,0.77,3.27
		c0.073,0.123,0.723,1.209,1.039,1.566l5.474,7.752l5.465-7.463c0.455-0.473,1.212-1.713,1.316-1.891
		C17.155,10.12,17.407,9.032,17.407,7.91z M15.836,10.697c-0.216,0.355-0.846,1.352-1.211,1.738L9.89,18.896l-4.755-6.729
		c-0.245-0.281-0.783-1.154-0.95-1.433C3.749,9.84,3.528,8.89,3.528,7.91c0-3.569,2.903-6.473,6.472-6.473
		c3.569,0,6.472,2.903,6.472,6.473C16.472,8.89,16.251,9.84,15.836,10.697z"/>
	<path fill="#879EB2" d="M10.065,4.186c-2.143,0-3.886,1.743-3.886,3.885c0,2.143,1.743,3.887,3.886,3.887s3.886-1.744,3.886-3.887
		C13.951,5.929,12.208,4.186,10.065,4.186z M10.065,11.021c-1.627,0-2.95-1.324-2.95-2.951c0-1.626,1.323-2.949,2.95-2.949
		c1.626,0,2.95,1.323,2.95,2.949C13.016,9.697,11.691,11.021,10.065,11.021z"/>
</g>
</svg>
