<?xml version="1.0" encoding="utf-8"?>
<!-- Generator: Adobe Illustrator 15.0.0, SVG Export Plug-In . SVG Version: 6.00 Build 0)  -->
<!DOCTYPE svg PUBLIC "-//W3C//DTD SVG 1.0//EN" "http://www.w3.org/TR/2001/REC-SVG-20010904/DTD/svg10.dtd">
<svg version="1.0" id="Layer_1" xmlns="http://www.w3.org/2000/svg" xmlns:xlink="http://www.w3.org/1999/xlink" x="0px" y="0px"
	 width="20px" height="21px" viewBox="0 0 20 21" enable-background="new 0 0 20 21" xml:space="preserve">
<g>
	<path fill-rule="evenodd" clip-rule="evenodd" fill="#879EB2" d="M7.597,8.764v-1h5.979v1H7.597z"/>
	<path fill-rule="evenodd" clip-rule="evenodd" fill="#879EB2" d="M7.597,11.788v-1h5.979v1H7.597z"/>
	<path fill-rule="evenodd" clip-rule="evenodd" fill="#879EB2" d="M7.597,14.788v-1h5.979v1H7.597z"/>
	<path fill-rule="evenodd" clip-rule="evenodd" fill="#879EB2" d="M4.642,8.764v-1h1.933v1H4.642z"/>
	<path fill-rule="evenodd" clip-rule="evenodd" fill="#879EB2" d="M4.642,11.788v-1h1.933v1H4.642z"/>
	<path fill-rule="evenodd" clip-rule="evenodd" fill="#879EB2" d="M4.642,14.788v-1h1.933v1H4.642z"/>
	<path fill="#879EB2" d="M18.997,2.687c-0.054-0.227-0.255-0.386-0.487-0.386H5.335c-2.83,0-3.252,1.953-3.252,3.116v11.014
		c0,0.667,0,1.148-1.092,1.946c-0.175,0.127-0.248,0.353-0.181,0.559c0.067,0.205,0.259,0.345,0.476,0.345h13.434
		c1.189,0,2.258-2.098,2.258-3.089V5.417c0-1.354,0.35-1.515,1.285-1.946c0.147-0.068,0.304-0.141,0.468-0.222
		C18.939,3.146,19.05,2.913,18.997,2.687z M15.979,5.417v10.774c0,0.718-0.893,2.089-1.258,2.089H2.549
		c0.482-0.628,0.534-1.206,0.534-1.85V5.417c0-1.463,0.694-2.116,2.252-2.116h11.305C16.239,3.708,15.979,4.322,15.979,5.417z"/>
</g>
</svg>
