<?xml version="1.0" encoding="utf-8"?>
<!-- Generator: Adobe Illustrator 15.0.0, SVG Export Plug-In . SVG Version: 6.00 Build 0)  -->
<!DOCTYPE svg PUBLIC "-//W3C//DTD SVG 1.0//EN" "http://www.w3.org/TR/2001/REC-SVG-20010904/DTD/svg10.dtd">
<svg version="1.0" id="Layer_1" xmlns="http://www.w3.org/2000/svg" xmlns:xlink="http://www.w3.org/1999/xlink" x="0px" y="0px"
	 width="20px" height="21px" viewBox="0 0 20 21" enable-background="new 0 0 20 21" xml:space="preserve">
<g>
	
		<path fill-rule="evenodd" clip-rule="evenodd" fill="none" stroke="#879EB2" stroke-linecap="round" stroke-linejoin="round" stroke-miterlimit="10" d="
		M18.546,9.26c0-3.737-3.826-6.767-8.547-6.767c-4.719,0-8.545,3.029-8.545,6.767c0,3.354,3.086,6.129,7.13,6.665
		c0.42,1.164,1.966,3.375,7.612,2.291c-1.283-0.201-2.494-1.273-2.926-2.705C16.368,14.493,18.546,12.079,18.546,9.26z"/>
	<path fill="#879EB2" d="M11.077,9.667c0.094-0.173,0.322-0.403,0.684-0.69c0.52-0.408,0.863-0.753,1.031-1.036
		c0.168-0.282,0.254-0.576,0.254-0.881c0-0.734-0.326-1.321-0.979-1.762c-0.48-0.326-1.109-0.489-1.891-0.489
		c-1.003,0-1.746,0.234-2.232,0.701C7.46,5.978,7.181,6.595,7.11,7.361l2.084,0.258C9.24,7.2,9.347,6.906,9.513,6.738
		C9.68,6.569,9.89,6.485,10.145,6.485c0.236,0,0.413,0.055,0.528,0.164c0.117,0.109,0.176,0.263,0.176,0.459
		s-0.146,0.414-0.436,0.65C9.868,8.209,9.519,8.524,9.362,8.704C9.207,8.883,9.09,9.081,9.011,9.297
		c-0.078,0.217-0.117,0.498-0.117,0.846v0.204h2.041C10.935,10.068,10.981,9.841,11.077,9.667z M8.823,13.431h2.186v-1.93H8.823
		V13.431z"/>
</g>
</svg>
