<?xml version="1.0" encoding="utf-8"?>
<!-- Generator: Adobe Illustrator 15.0.0, SVG Export Plug-In . SVG Version: 6.00 Build 0)  -->
<!DOCTYPE svg PUBLIC "-//W3C//DTD SVG 1.0//EN" "http://www.w3.org/TR/2001/REC-SVG-20010904/DTD/svg10.dtd">
<svg version="1.0" id="Layer_1" xmlns="http://www.w3.org/2000/svg" xmlns:xlink="http://www.w3.org/1999/xlink" x="0px" y="0px"
	 width="20px" height="21px" viewBox="0 0 20 21" enable-background="new 0 0 20 21" xml:space="preserve">
<path fill-rule="evenodd" clip-rule="evenodd" fill="none" stroke="#879EB2" stroke-linecap="round" stroke-linejoin="round" stroke-miterlimit="10" d="
	M18.318,8.97c0-3.737-3.826-6.767-8.546-6.767c-4.719,0-8.545,3.029-8.545,6.767c0,3.354,3.086,6.13,7.13,6.666
	c0.42,1.164,1.966,3.374,7.612,2.29c-1.282-0.202-2.494-1.274-2.926-2.705C16.14,14.204,18.318,11.789,18.318,8.97z"/>
<path fill-rule="evenodd" clip-rule="evenodd" fill="none" stroke="#879EB2" stroke-linecap="round" stroke-linejoin="round" stroke-miterlimit="10" d="
	M9.735,4.942l1.318,2.392l2.682,0.516l-1.867,1.992l0.34,2.711l-2.472-1.16l-2.473,1.16l0.339-2.711L5.734,7.849l2.683-0.516
	L9.735,4.942"/>
</svg>
