<?xml version="1.0" encoding="utf-8"?>
<!-- Generator: Adobe Illustrator 15.0.0, SVG Export Plug-In . SVG Version: 6.00 Build 0)  -->
<!DOCTYPE svg PUBLIC "-//W3C//DTD SVG 1.0//EN" "http://www.w3.org/TR/2001/REC-SVG-20010904/DTD/svg10.dtd">
<svg version="1.0" id="Layer_1" xmlns="http://www.w3.org/2000/svg" xmlns:xlink="http://www.w3.org/1999/xlink" x="0px" y="0px"
	 width="20px" height="21px" viewBox="0 0 20 21" enable-background="new 0 0 20 21" xml:space="preserve">
<path fill-rule="evenodd" clip-rule="evenodd" fill="none" stroke="#879EB2" stroke-miterlimit="10" d="M2.473,4.295h14.995
	c0.592,0,1.07,0.479,1.07,1.071v9.556c0,0.591-0.479,1.071-1.07,1.071H2.473c-0.591,0-1.071-0.48-1.071-1.071V5.366
	C1.402,4.774,1.882,4.295,2.473,4.295z"/>
<path fill-rule="evenodd" clip-rule="evenodd" fill="#879EB2" d="M5.625,12.506v0.901H3.287v-0.901H5.625z"/>
<path fill-rule="evenodd" clip-rule="evenodd" fill="#879EB2" d="M9.544,12.506v0.901H7.205v-0.901H9.544z"/>
<path fill-rule="evenodd" clip-rule="evenodd" fill="#879EB2" d="M13.131,12.506v0.901h-2.338v-0.901H13.131z"/>
<path fill-rule="evenodd" clip-rule="evenodd" fill="#879EB2" d="M16.814,12.506v0.901h-2.339v-0.901H16.814z"/>
<path fill-rule="evenodd" clip-rule="evenodd" fill="#879EB2" d="M3.522,6.194h4.326v3.511H3.522V6.194z"/>
</svg>
